<svg id="Layer_1" data-name="Layer 1" xmlns="http://www.w3.org/2000/svg" viewBox="0 0 763.93 192.68" data-v-6806aea8="" data-v-d2ae8348=""><path class="cls-2" d="m142.29,64.23C142.29,28.9,113.39,0,78.06,0h-33.81c20.39,14.11,33.81,37.67,33.81,64.22h0s64.23,0,64.23,0Z" data-v-d2ae8348=""></path><path class="cls-5" d="m142.29,64.23c0,35.32-28.9,64.23-64.23,64.23v-64.23h64.23Z" data-v-d2ae8348=""></path><path class="cls-1" d="m0,128.45C0,163.78,28.9,192.68,64.23,192.68v-64.23H0Z" data-v-d2ae8348=""></path><path class="cls-6" d="m64.23,64.23C64.23,28.9,35.33,0,0,0v64.23h64.23Z" data-v-d2ae8348=""></path><rect class="cls-7" y="64.23" width="64.23" height="64.23" data-v-d2ae8348=""></rect><path class="cls-3" d="m216.17,95.46c4.44,0,7.95-1.11,10.51-3.33,2.57-2.21,3.85-5.07,3.85-8.56v-.19c0-3.93-1.3-6.9-3.9-8.89-2.59-2.01-6.08-3-10.46-3h-13.6v23.98h13.6Zm-25.16-34.5h26.16c3.85,0,7.35.52,10.47,1.57,3.13,1.04,5.78,2.54,7.96,4.5,2.18,1.96,3.85,4.3,5.02,7.01,1.17,2.72,1.75,5.75,1.75,9.1v.19c0,3.73-.7,7-2.09,9.81-1.41,2.81-3.3,5.17-5.7,7.06-2.42,1.9-5.23,3.33-8.45,4.31-3.24.98-6.68,1.47-10.36,1.47h-13.21v21.33h-11.56V60.96h0Zm68.68,0h11.56v66.35h-11.56V60.96h0Zm53.23,32.6l-23.22-32.6h13.74l16.49,23.79,16.59-23.79h13.36l-23.13,32.42,24.07,33.93h-13.74l-17.44-25.12-17.53,25.12h-13.36l24.17-33.74h0Zm54.65-32.6h49.1v10.52h-37.53v17.06h33.27v10.52h-33.27v17.72h38.01v10.52h-49.57V60.96h0Zm68.2,0h11.56v55.83h34.88v10.52h-46.44V60.96Z" data-v-d2ae8348=""></path><path class="cls-4" d="m499.99,127.31h23.03c20.85,0,35.26-14.5,35.26-33.17v-.19c0-18.67-14.41-32.98-35.26-32.98h-23.03v66.35h0Zm7.49-6.92v-52.51h15.55c16.77,0,27.49,11.56,27.49,26.25v.19c0,14.69-10.71,26.06-27.49,26.06h-15.55Zm71.33,6.92h48.43v-6.82h-40.95v-23.22h36.21v-6.82h-36.21v-22.65h40.47v-6.83h-47.96v66.35h0Zm89.15.47h6.63l28.53-66.82h-8.06l-23.69,57.15-23.6-57.15h-8.34l28.53,66.82h0Zm73.32.47c13.17,0,22.65-7.39,22.65-18.77v-.19c0-10.14-6.82-15.54-21.61-18.77-14.6-3.13-18.01-6.64-18.01-12.89v-.19c0-5.97,5.5-10.71,14.12-10.71,6.82,0,12.98,2.18,19.15,7.2l4.36-5.78c-6.73-5.4-13.65-8.15-23.32-8.15-12.61,0-21.8,7.68-21.8,18.1v.19c0,10.9,7.01,15.83,22.27,19.15,13.93,2.94,17.25,6.44,17.25,12.61v.19c0,6.54-5.88,11.28-14.79,11.28s-15.83-3.13-22.75-9.38l-4.64,5.5c7.96,7.11,16.59,10.62,27.11,10.62Z" data-v-d2ae8348=""></path></svg>